<svg width="40" height="40" viewBox="0 0 40 40" fill="none" xmlns="http://www.w3.org/2000/svg">
<path d="M28.1499 26.5999C27.8332 26.5999 27.4999 26.4666 27.2666 26.2333L21.9499 20.9166C21.4666 20.4333 21.4666 19.6333 21.9499 19.1499L27.3166 13.7833C27.6999 13.3999 28.2832 13.3166 28.7666 13.55L36.2499 17.3C37.2832 17.8 37.9332 18.8333 37.9332 20C37.9332 21.1666 37.2832 22.2 36.2499 22.7L28.7332 26.4666C28.5332 26.55 28.3332 26.5999 28.1499 26.5999ZM24.5999 20.0333L28.3832 23.8166L35.0999 20.4499C35.0999 20.4499 35.0999 20.4499 35.1166 20.4499C35.3666 20.3333 35.3999 20.1166 35.3999 20C35.3999 19.8833 35.3666 19.6666 35.1166 19.55L28.4332 16.2L24.5999 20.0333Z" fill="black"/>
<path d="M5.11683 37.9166C4.56683 37.9166 4.00016 37.7666 3.51683 37.45C2.61683 36.9 2.0835 35.9333 2.0835 34.8666V5.09996C2.0835 4.04996 2.61683 3.08331 3.51683 2.51664C4.41683 1.96664 5.51683 1.89995 6.46683 2.38328L28.7502 13.5333C29.1168 13.7166 29.3668 14.05 29.4168 14.45C29.4668 14.85 29.3502 15.25 29.0668 15.5333L7.7335 36.8666C7.6335 36.9666 7.5335 37.0333 7.40016 37.1L6.4335 37.5833C6.0335 37.8166 5.56683 37.9166 5.11683 37.9166ZM5.11683 4.58329C5.00016 4.58329 4.90016 4.63327 4.8335 4.66661C4.7335 4.71661 4.5835 4.86664 4.5835 5.11664V34.8833C4.5835 35.1499 4.7335 35.2833 4.8335 35.3333C4.9335 35.4 5.11683 35.4666 5.36683 35.3499L6.1335 34.9666L26.0835 15.0166L5.35016 4.64997C5.26683 4.59997 5.1835 4.58329 5.11683 4.58329Z" fill="black"/>
<path d="M6.86649 37.25C6.48315 37.25 6.09982 37.0667 5.84982 36.7334C5.48315 36.2334 5.54982 35.55 5.98315 35.1167L21.9498 19.15C22.1832 18.9167 22.4998 18.7833 22.8332 18.7833C23.1665 18.7833 23.4832 18.9167 23.7165 19.15L29.0332 24.4667C29.3165 24.75 29.4498 25.15 29.3832 25.55C29.3165 25.95 29.0665 26.2834 28.7165 26.4667L7.44982 37.1167C7.24982 37.2 7.06649 37.25 6.86649 37.25ZM22.8332 21.8L13.2165 31.4167L26.0332 25L22.8332 21.8Z" fill="black"/>
<path d="M22.8333 21.2833C22.5166 21.2833 22.2 21.1667 21.95 20.9167L5.9333 4.90004C5.44997 4.4167 5.44997 3.61671 5.9333 3.13337C6.41663 2.65004 7.21663 2.65004 7.69997 3.13337L23.7166 19.15C24.2 19.6334 24.2 20.4333 23.7166 20.9167C23.4833 21.1667 23.15 21.2833 22.8333 21.2833Z" fill="black"/>
<path d="M28.1667 26.6334C27.8667 26.6334 27.55 26.5167 27.3167 26.2667L27.2667 26.2167C26.7834 25.7334 26.7834 24.9334 27.2834 24.4501C27.7834 23.9667 28.5667 23.9667 29.05 24.4667C29.5334 24.95 29.55 25.7834 29.0667 26.2667C28.8 26.5167 28.4834 26.6334 28.1667 26.6334Z" fill="black"/>
</svg>
