<svg width="40" height="40" viewBox="0 0 40 40" fill="none" xmlns="http://www.w3.org/2000/svg">
<path fill-rule="evenodd" clip-rule="evenodd" d="M31.8334 31.9333C32.8168 30.4333 33.1834 29.6666 33.9334 27.9833C28.4001 25.8833 27.5168 17.9999 32.9834 14.9833C31.3168 12.8833 28.9668 11.6666 26.7501 11.6666C25.1501 11.6666 24.0501 12.0833 23.0668 12.4666C22.2334 12.7833 21.4834 13.0666 20.5501 13.0666C19.5501 13.0666 18.6668 12.75 17.7334 12.4166C16.7168 12.05 15.6501 11.6666 14.3168 11.6666C11.8334 11.6666 9.18344 13.1833 7.50011 15.7833C5.13344 19.45 5.55012 26.3166 9.36678 32.1833C10.7334 34.2833 12.5668 36.6333 14.9501 36.6666C15.9501 36.6833 16.6001 36.3833 17.3168 36.0666C18.1334 35.7 19.0168 35.2999 20.5668 35.2999C22.1168 35.2833 22.9834 35.7 23.8001 36.0666C24.5001 36.3833 25.1334 36.6833 26.1168 36.6666C28.5334 36.6333 30.4668 34.0333 31.8334 31.9333Z" fill="black"/>
<path fill-rule="evenodd" clip-rule="evenodd" d="M26.4002 3.33331C26.6669 5.16665 25.9169 6.98333 24.9336 8.25C23.8836 9.61667 22.0502 10.6833 20.2836 10.6166C19.9669 8.84997 20.7836 7.0333 21.7836 5.81663C22.9002 4.4833 24.7836 3.44998 26.4002 3.33331Z" fill="black"/>
</svg>
