<svg width="159" height="60" viewBox="0 0 159 60" fill="none" xmlns="http://www.w3.org/2000/svg">
<path d="M10.4546 18.4121L6.97914 18.4121L6.97914 33.1293L1.27246 33.1293L1.27246 0.176453L6.97914 0.176453L6.97914 13.0487L10.6692 13.0487L20.8597 0.176453L27.7677 0.176453L15.3246 15.5587L28.1968 33.1293L21.3531 33.1293L10.4546 18.4121Z" fill="#303030"/>
<path d="M38.516 33.1293L32.8093 33.1293L32.8093 0.176453L38.516 0.176453L38.516 33.1293Z" fill="#303030"/>
<path d="M59.605 33.1293L53.8983 33.1293L53.8983 5.45405L44.2227 5.45405L44.2227 0.176453L69.2806 0.176453L69.2806 5.45405L59.605 5.45405L59.605 33.1293Z" fill="#303030"/>
<path d="M73.9575 33.1293L68.165 33.1293L80.7583 0.176453L86.9584 0.176453L99.5732 33.1293L93.5018 33.1293L89.7259 22.9388L77.7333 22.9388L73.9575 33.1293ZM83.7618 6.71982L79.5783 17.9186L87.8809 17.9186L83.7618 6.71982Z" fill="#303030"/>
<path d="M110.343 33.1293L104.636 33.1293L104.636 0.176453L117.337 0.176453C120.684 0.176453 123.401 1.14902 125.489 3.09415C127.577 5.03928 128.621 7.53506 128.621 10.5815C128.621 13.5707 127.57 16.0593 125.468 18.0474C123.365 20.0211 120.655 21.008 117.337 21.008L110.343 21.008L110.343 33.1293ZM117.337 5.32533L110.343 5.32533L110.343 15.8591L117.337 15.8591C119.024 15.8591 120.376 15.38 121.392 14.4217C122.407 13.4491 122.915 12.1691 122.915 10.5815C122.915 8.97961 122.407 7.70669 121.392 6.76273C120.39 5.80446 119.039 5.32533 117.337 5.32533Z" fill="#303030"/>
<path d="M140.721 33.1293L135.015 33.1293L135.015 0.176453L147.715 0.176453C151.062 0.176453 153.779 1.14902 155.868 3.09415C157.956 5.03928 159 7.53506 159 10.5815C159 13.5707 157.949 16.0593 155.846 18.0474C153.744 20.0211 151.033 21.008 147.715 21.008L140.721 21.008L140.721 33.1293ZM147.715 5.32533L140.721 5.32533L140.721 15.8591L147.715 15.8591C149.403 15.8591 150.754 15.38 151.77 14.4217C152.785 13.4491 153.293 12.1691 153.293 10.5815C153.293 8.97961 152.785 7.70669 151.77 6.76273C150.769 5.80446 149.417 5.32533 147.715 5.32533Z" fill="#303030"/>
<path d="M1.11238 52.3609C0.514348 51.2625 0.215332 50.0267 0.215332 48.6537C0.215332 47.2807 0.514348 46.0449 1.11238 44.9465C1.71041 43.8481 2.54644 42.9907 3.62046 42.3744C4.70058 41.7519 5.92105 41.4407 7.28188 41.4407C8.64271 41.4407 9.86014 41.7519 10.9342 42.3744C12.0143 42.9907 12.8534 43.8481 13.4514 44.9465C14.0494 46.0449 14.3484 47.2807 14.3484 48.6537C14.3484 49.8437 14.1104 50.9452 13.6345 51.9581C13.1585 52.9711 12.5025 53.8011 11.6664 54.4479L13.3324 56.4159L11.6115 57.8622L9.6252 55.5189C8.88071 55.7508 8.0996 55.8667 7.28188 55.8667C5.92105 55.8667 4.70058 55.5585 3.62046 54.9422C2.54644 54.3198 1.71041 53.4593 1.11238 52.3609ZM3.99575 45.0564C3.15973 45.9656 2.74172 47.1647 2.74172 48.6537C2.74172 50.1427 3.15973 51.3418 3.99575 52.2511C4.81957 53.1664 5.91495 53.6241 7.28188 53.6241C7.43444 53.6241 7.66328 53.6119 7.9684 53.5875L5.33217 50.457L7.05304 49.0107L10.1469 52.663C10.6779 52.2419 11.0867 51.6835 11.3735 50.9879C11.6664 50.2861 11.8129 49.508 11.8129 48.6537C11.8129 47.1708 11.401 45.9717 10.5772 45.0564C9.73504 44.141 8.63661 43.6833 7.28188 43.6833C5.91495 43.6833 4.81957 44.141 3.99575 45.0564Z" fill="#303030"/>
<path d="M16.527 46.3104H18.7788L18.7788 51.9307C18.7788 52.5348 18.9435 52.9956 19.2731 53.3129C19.6087 53.6302 20.0816 53.7889 20.6919 53.7889C20.9482 53.7889 21.1861 53.7522 21.4058 53.679C21.6316 53.6058 21.8452 53.4929 22.0466 53.3403C22.248 53.1878 22.4066 52.9681 22.5226 52.6813C22.6385 52.3945 22.6965 52.0588 22.6965 51.6744L22.6965 46.3104L24.9483 46.3104L24.9483 55.6836H22.8796L22.788 54.6493C22.0618 55.4609 21.1617 55.8667 20.0877 55.8667C19.0625 55.8667 18.2112 55.5433 17.5339 54.8964C16.8626 54.2435 16.527 53.3251 16.527 52.1412L16.527 46.3104Z" fill="#303030"/>
<path d="M30.001 55.6836H27.7584L27.7584 41.6238H30.001L30.001 55.6836Z" fill="#303030"/>
<path d="M40.491 55.6836L38.5047 55.6836L38.3582 54.3381C38.0043 54.8202 37.5558 55.1955 37.0127 55.464C36.4757 55.7325 35.8868 55.8667 35.246 55.8667C34.3612 55.8667 33.6319 55.6226 33.0583 55.1344C32.4908 54.6401 32.207 53.9597 32.207 53.0932C32.207 52.6294 32.2955 52.2205 32.4725 51.8666C32.6495 51.5066 32.9058 51.2076 33.2414 50.9696C33.577 50.7316 33.9462 50.5363 34.349 50.3837C34.7517 50.2251 35.2247 50.0908 35.7678 49.981L38.285 49.4775C38.1324 48.5012 37.4886 48.013 36.3536 48.013C35.1819 48.013 34.4802 48.5073 34.2483 49.4958L32.1887 49.1022C32.3352 48.2174 32.7898 47.5004 33.5526 46.9511C34.3215 46.4019 35.3101 46.1273 36.5184 46.1273C37.7449 46.1273 38.7122 46.4508 39.42 47.0976C40.134 47.7445 40.491 48.6263 40.491 49.743L40.491 55.6836ZM34.4771 52.965C34.4771 53.2946 34.5809 53.5509 34.7883 53.7339C35.0019 53.9109 35.2857 53.9994 35.6396 53.9994C35.9753 53.9994 36.2987 53.9445 36.6099 53.8346C36.9272 53.7248 37.214 53.5661 37.4703 53.3586C37.7266 53.1512 37.9311 52.8796 38.0836 52.544C38.2423 52.2022 38.3216 51.8178 38.3216 51.3906V51.1618L35.841 51.7293C35.3955 51.8147 35.0569 51.9551 34.825 52.1504C34.5931 52.3456 34.4771 52.6172 34.4771 52.965Z" fill="#303030"/>
<path d="M45.4065 55.6836L41.4155 46.3104H43.9144L46.5873 52.782L48.9764 46.3104H51.3197L46.1388 59.8119L43.8321 59.8119L45.4065 55.6836Z" fill="#303030"/>
<path d="M59.1826 55.6836H56.94L56.94 46.3104H58.9995L59.1094 47.2624C59.7135 46.5057 60.5007 46.1273 61.471 46.1273C62.0385 46.1273 62.5542 46.2494 63.0179 46.4935C63.4878 46.7315 63.8662 47.0762 64.153 47.5278C64.8731 46.5942 65.8037 46.1273 66.9448 46.1273C67.8602 46.1273 68.6413 46.4324 69.2881 47.0427C69.9289 47.6651 70.2493 48.5652 70.2493 49.743L70.2493 55.6836L67.9975 55.6836L67.9975 49.9078C67.9975 49.3585 67.8571 48.9375 67.5764 48.6446C67.3018 48.3516 66.9296 48.2052 66.4597 48.2052C65.9776 48.2052 65.5657 48.3425 65.2239 48.6171C64.8883 48.8917 64.7205 49.3219 64.7205 49.9078L64.7205 55.6836L62.4687 55.6836L62.4687 49.9078C62.4687 49.3585 62.3284 48.9375 62.0477 48.6446C61.7731 48.3516 61.4008 48.2052 60.9309 48.2052C60.4488 48.2052 60.0369 48.3425 59.6952 48.6171C59.3535 48.8917 59.1826 49.3219 59.1826 49.9078L59.1826 55.6836Z" fill="#303030"/>
<path d="M72.6383 46.3104H74.8901V51.9307C74.8901 52.5348 75.0549 52.9956 75.3844 53.3129C75.72 53.6302 76.193 53.7889 76.8032 53.7889C77.0595 53.7889 77.2975 53.7522 77.5172 53.679C77.743 53.6058 77.9566 53.4929 78.1579 53.3403C78.3593 53.1878 78.518 52.9681 78.6339 52.6813C78.7499 52.3945 78.8078 52.0588 78.8078 51.6744V46.3104L81.0596 46.3104L81.0596 55.6836L78.9909 55.6836L78.8994 54.6493C78.1732 55.4609 77.2731 55.8667 76.1991 55.8667C75.1739 55.8667 74.3226 55.5433 73.6452 54.8964C72.974 54.2435 72.6383 53.3251 72.6383 52.1412V46.3104Z" fill="#303030"/>
<path d="M82.5516 48.2784V47.656L85.9842 44.1776H86.5701L86.5701 46.3104L89.847 46.3104V48.2784L86.5701 48.2784V52.425C86.5701 52.9071 86.6799 53.2549 86.8996 53.4685C87.1254 53.6821 87.458 53.7889 87.8973 53.7889C88.2574 53.7889 88.6937 53.6821 89.2063 53.4685L89.7189 55.3267C88.9561 55.6867 88.1872 55.8667 87.4122 55.8667C86.448 55.8667 85.6913 55.6074 85.1421 55.0887C84.5929 54.57 84.3183 53.856 84.3183 52.9467V48.2784H82.5516Z" fill="#303030"/>
<path d="M92.227 47.5095C93.1667 46.5881 94.3536 46.1273 95.7877 46.1273C97.2218 46.1273 98.4087 46.5881 99.3484 47.5095C100.288 48.431 100.758 49.5935 100.758 50.997C100.758 52.4006 100.288 53.5631 99.3484 54.4845C98.4087 55.406 97.2218 55.8667 95.7877 55.8667C94.3536 55.8667 93.1667 55.406 92.227 54.4845C91.2933 53.5631 90.8265 52.4006 90.8265 50.997C90.8265 49.5935 91.2933 48.431 92.227 47.5095ZM97.6916 48.9649C97.2095 48.4462 96.5749 48.1869 95.7877 48.1869C95.0005 48.1869 94.3658 48.4462 93.8838 48.9649C93.4078 49.4836 93.1698 50.161 93.1698 50.997C93.1698 51.833 93.4078 52.5104 93.8838 53.0291C94.3658 53.5478 95.0005 53.8072 95.7877 53.8072C96.5749 53.8072 97.2095 53.5478 97.6916 53.0291C98.1737 52.5104 98.4148 51.833 98.4148 50.997C98.4148 50.161 98.1737 49.4836 97.6916 48.9649Z" fill="#303030"/>
<path d="M110.534 55.6836L108.548 55.6836L108.401 54.3381C108.047 54.8202 107.599 55.1955 107.056 55.464C106.519 55.7325 105.93 55.8667 105.289 55.8667C104.404 55.8667 103.675 55.6226 103.101 55.1344C102.534 54.6401 102.25 53.9597 102.25 53.0932C102.25 52.6294 102.339 52.2205 102.516 51.8666C102.693 51.5066 102.949 51.2076 103.284 50.9696C103.62 50.7316 103.989 50.5363 104.392 50.3837C104.795 50.2251 105.268 50.0908 105.811 49.981L108.328 49.4775C108.176 48.5012 107.532 48.013 106.397 48.013C105.225 48.013 104.523 48.5073 104.291 49.4958L102.232 49.1022C102.378 48.2174 102.833 47.5004 103.596 46.9511C104.365 46.4019 105.353 46.1273 106.561 46.1273C107.788 46.1273 108.755 46.4508 109.463 47.0976C110.177 47.7445 110.534 48.6263 110.534 49.743L110.534 55.6836ZM104.52 52.965C104.52 53.2946 104.624 53.5509 104.831 53.7339C105.045 53.9109 105.329 53.9994 105.683 53.9994C106.018 53.9994 106.342 53.9445 106.653 53.8346C106.97 53.7248 107.257 53.5661 107.513 53.3586C107.77 53.1512 107.974 52.8796 108.127 52.544C108.285 52.2022 108.365 51.8178 108.365 51.3906V51.1618L105.884 51.7293C105.439 51.8147 105.1 51.9551 104.868 52.1504C104.636 52.3456 104.52 52.6172 104.52 52.965Z" fill="#303030"/>
<path d="M115.404 55.6836L113.161 55.6836L113.161 41.6238L115.404 41.6238L115.404 55.6836Z" fill="#303030"/>
<path d="M125.894 55.6836H123.907L123.761 54.3381C123.407 54.8202 122.959 55.1955 122.415 55.464C121.878 55.7325 121.29 55.8667 120.649 55.8667C119.764 55.8667 119.035 55.6226 118.461 55.1344C117.894 54.6401 117.61 53.9597 117.61 53.0932C117.61 52.6294 117.698 52.2205 117.875 51.8666C118.052 51.5066 118.309 51.2076 118.644 50.9696C118.98 50.7316 119.349 50.5363 119.752 50.3837C120.154 50.2251 120.627 50.0908 121.171 49.981L123.688 49.4775C123.535 48.5012 122.891 48.013 121.756 48.013C120.585 48.013 119.883 48.5073 119.651 49.4958L117.591 49.1022C117.738 48.2174 118.193 47.5004 118.955 46.9511C119.724 46.4019 120.713 46.1273 121.921 46.1273C123.148 46.1273 124.115 46.4508 124.823 47.0976C125.537 47.7445 125.894 48.6263 125.894 49.743L125.894 55.6836ZM119.88 52.965C119.88 53.2946 119.984 53.5509 120.191 53.7339C120.405 53.9109 120.688 53.9994 121.042 53.9994C121.378 53.9994 121.701 53.9445 122.013 53.8346C122.33 53.7248 122.617 53.5661 122.873 53.3586C123.129 53.1512 123.334 52.8796 123.486 52.544C123.645 52.2022 123.724 51.8178 123.724 51.3906V51.1618L121.244 51.7293C120.798 51.8147 120.46 51.9551 120.228 52.1504C119.996 52.3456 119.88 52.6172 119.88 52.965Z" fill="#303030"/>
</svg>
