<svg width="74" height="74" viewBox="0 0 74 74" fill="none" xmlns="http://www.w3.org/2000/svg">
<path d="M0 29.2914C0 15.4833 0 8.57925 4.28963 4.28963C8.57925 0 15.4833 0 29.2914 0L43.9371 0C57.7452 0 64.6493 0 68.9389 4.28963C73.2285 8.57925 73.2285 15.4833 73.2285 29.2914L73.2285 43.9371C73.2285 57.7452 73.2285 64.6493 68.9389 68.9389C64.6493 73.2285 57.7452 73.2285 43.9371 73.2285L29.2914 73.2285C15.4833 73.2285 8.57925 73.2285 4.28963 68.9389C0 64.6493 0 57.7452 0 43.9371L0 29.2914Z" fill="#002883"/>
<path d="M62.83 36.7104C59.3301 37.4426 58.0454 39.051 57.5604 39.8355C56.9574 40.8162 56.5511 42.2023 56.3544 42.8953C55.9481 44.2683 55.8563 45.2098 55.1878 46.6351C54.729 47.6027 54.4013 48.2696 53.9556 48.2957C53.6148 48.3088 52.8545 47.9819 51.7534 44.2945C50.6391 49.0018 48.4369 52.0093 46.7853 51.8393C45.8939 51.7478 44.7403 50.6756 44.5961 50.5317C43.7572 49.7472 43.3377 48.9103 43.1411 48.4003C42.9838 49.1457 42.3808 51.3817 40.2835 53.0946C39.1037 54.0623 37.8715 54.5069 37.0457 54.7161C36.7179 54.7945 36.364 54.7945 36.0363 54.7161C35.1974 54.5069 33.9783 54.0623 32.7985 53.0946C30.7012 51.3686 30.1113 49.1457 29.9409 48.4003C29.7311 48.8972 29.3117 49.7472 28.4858 50.5317C28.3416 50.6756 27.175 51.7478 26.2836 51.8393C24.6451 52.0093 22.4428 49.0149 21.3286 44.2945C20.2406 47.9819 19.4803 48.3219 19.1264 48.2957C18.6807 48.2696 18.353 47.6027 17.8942 46.6351C17.2126 45.2098 17.1208 44.2814 16.7275 42.8953C16.5309 42.2023 16.1245 40.8032 15.5216 39.8355C15.0365 39.0379 13.7519 37.4426 10.252 36.7104C13.7388 35.9781 15.0234 34.3697 15.5216 33.5852C16.1245 32.6045 16.5309 31.2053 16.7275 30.5254C17.1339 29.1524 17.2257 28.2109 17.8942 26.7987C18.353 25.8311 18.6807 25.1511 19.1264 25.125C19.4672 25.1119 20.2275 25.4388 21.3286 29.1263C22.4428 24.4189 24.6451 21.4114 26.2836 21.5945C27.175 21.686 28.3285 22.7582 28.4858 22.9021C29.3248 23.6866 29.7442 24.5235 29.9409 25.0335C30.0982 24.2881 30.7012 22.0521 32.7985 20.3392C33.9783 19.3715 35.1974 18.9269 36.0363 18.7177C36.2329 18.6654 36.4033 18.6393 36.5475 18.6C36.6917 18.6262 36.8621 18.6654 37.0588 18.7177C37.8977 18.9269 39.1168 19.3715 40.2966 20.3392C42.3939 22.0521 42.9838 24.2881 43.1542 25.0335C43.3639 24.5366 43.7834 23.6866 44.6092 22.9021C44.7534 22.7582 45.9201 21.6991 46.7984 21.5945C48.4369 21.4245 50.6391 24.4189 51.7665 29.1263C52.8545 25.4388 53.6148 25.0988 53.9687 25.125C54.4144 25.1511 54.7421 25.818 55.2009 26.7987C55.8825 28.224 55.9743 29.1524 56.3675 30.5254C56.5642 31.2184 56.9705 32.6176 57.5735 33.5852C58.0585 34.3828 59.3432 35.9781 62.83 36.7104Z" fill="white"/>
</svg>
